<?xml version="1.0" standalone="no"?>
<!DOCTYPE svg PUBLIC "-//W3C//DTD SVG 20010904//EN"
 "http://www.w3.org/TR/2001/REC-SVG-20010904/DTD/svg10.dtd">
<svg version="1.0" xmlns="http://www.w3.org/2000/svg"
 width="616.000000pt" height="693.000000pt" viewBox="0 0 616.000000 693.000000"
 preserveAspectRatio="xMidYMid meet">

<defs>
  <!-- Gradient definition -->
  <linearGradient id="grad1" x1="0%" y1="0%" x2="0%" y2="100%">
  <stop offset="0%" style="stop-color:#8c57ff;stop-opacity:1" />
    <stop offset="100%" style="stop-color:#d1afff;stop-opacity:1" />
    
  </linearGradient>
</defs>

<g transform="translate(0.000000,693.000000) scale(0.100000,-0.100000)"
fill="url(#grad1)" stroke="none">
<path d="M3388 6714 c-123 -84 -575 -424 -634 -477 -65 -59 -111 -129 -135
-208 -18 -58 -19 -111 -19 -1261 0 -1194 0 -1200 20 -1187 166 116 694 514
738 558 72 71 108 142 123 241 8 50 13 383 16 1000 5 915 -1 1390 -18 1390 -4
0 -46 -25 -91 -56z"/>
<path d="M4883 5798 c-223 -158 -627 -463 -678 -513 -64 -62 -94 -110 -126
-204 -18 -52 -19 -121 -19 -1898 0 -1013 3 -1843 6 -1843 12 0 623 452 698
516 91 77 136 136 171 222 l25 62 0 1850 c0 1018 -4 1850 -8 1850 -5 0 -36
-19 -69 -42z"/>
<path d="M1666 5450 c-192 -143 -372 -281 -399 -307 -65 -64 -94 -116 -108
-194 -8 -46 -13 -587 -16 -1903 l-4 -1839 28 18 c113 72 633 465 701 530 86
81 110 118 143 214 18 52 19 119 18 1855 0 991 -4 1820 -7 1843 l-7 42 -349
-259z"/>
<path d="M3253 3311 c-295 -215 -477 -355 -528 -406 -64 -65 -102 -140 -116
-225 -14 -91 -24 -1843 -12 -2189 l8 -223 150 107 c83 59 227 165 320 235 309
231 356 280 395 409 20 65 20 90 18 1263 l-3 1197 -232 -168z"/>
</g>
</svg>